<?xml version="1.0" ?>
<svg  enable-background="new 0 0 512 512" id="Layer_1" version="1.1" viewBox="0 0 512 512" xml:space="preserve" xmlns="http://www.w3.org/2000/svg"><g>
    <path d="M423.2,205.5c7-1.3,14-3.3,21-3.6c35.2-1.4,64.4,25.7,65.3,60.2c0.9,35.1-26.2,64-61.8,64.3c-57.1,0.4-114.3,0.1-171.5,0
      c-6.8,0-8.9-2.6-8.9-10.3c0-33.7,0-67.3,0-101c0-30.2,0-60.3,0-90.5c0-8.1,0.4-8.9,8.1-11.6c62.5-22.3,127.8,13.5,144.3,75.4
         C421.2,194.1,422.1,200,423.2,205.5z"/><path d="M246.3,201.3c0.5-23.8,1-47.6,1.5-71.5c0.1-5.6,2.4-8.7,6.6-8.9c4.4-0.2,7,2.9,7.2,8.9c0.8,36.5,1.3,73,2.4,109.4
           c0.8,25.7-0.6,51.3-2.2,76.9c-0.1,1-0.1,2-0.3,3c-0.6,4.2-2.6,7-7.1,6.8c-4.4-0.2-6.4-3-6.6-7.3c-0.3-6-0.8-12-0.9-18
              c-0.6-33.1-1.1-66.2-1.7-99.4C245.5,201.3,245.9,201.3,246.3,201.3z"/>
    <path d="M241,213.3c2.1,35,1.2,69.9-1.2,104.8c-0.4,5.4-2.7,8.2-6.8,8.1c-3.9-0.1-5.9-3-6.3-8c-4.3-59.1-0.3-118.2,0.1-177.3
     c0-4.8,2.7-7.9,6.5-7.9c3.7,0,6.5,3.2,6.5,7.9c0.1,24.1,0,48.3,0,72.4C240.2,213.3,240.6,213.3,241,213.3z"/>
    <path d="M205.8,224c0-19.8,0-39.6,0-59.4c0-1.3,0-2.7,0-4c0.1-4,2.2-6.5,6-6.6c3.9,0,5.9,2.5,6,6.5c0.2,7.8,0.5,15.6,0.8,23.5
    c0.7,25.5,2,50.9,1.9,76.4c0,19.9-1.7,39.9-2.8,59.8c-0.2,3.7-2.3,5.9-6.1,5.8c-4.1-0.2-5.6-2.9-5.8-6.7c-0.6-12-1.7-23.9-1.8-35.9
     c-0.3-19.8-0.1-39.6-0.1-59.4C204.5,224,205.1,224,205.8,224z"/>
    <path d="M197.8,213.8c0.5,17.3,1.8,34.6,1.5,51.9c-0.3,18.3-2,36.5-3.2,54.8c-0.2,3.5-2.1,5.7-5.8,5.4c-4-0.3-5.2-3.2-5.4-6.6
      c-0.7-13.3-2.1-26.6-2-39.9c0.4-40.6,1.3-81.2,2-121.8c0.1-3.9,1.2-7.2,5.8-7.1c4.7,0.1,5.3,3.6,5.5,7.3
        C196.7,176.5,197.3,195.2,197.8,213.8C197.9,213.8,197.9,213.8,197.8,213.8z"/>
    <path d="M162.2,232.6c0.9-29.4,1.5-52.7,2.2-76c0-0.7,0.1-1.3,0.1-2c0-3.5,0.8-6.6,5-6.6c4.4,0,5.3,3.2,5.4,6.9
     c0.2,8.2,0.5,16.3,0.8,24.5c0.9,29.1,2.3,58.3,2.3,87.4c0,17.9-2,35.9-3.2,53.8c-0.2,3.1-1.7,5.5-5.3,5.4c-3.9-0.1-4.8-2.8-5-6.1
        C162.2,288.8,160.2,257.7,162.2,232.6z"/>
    <path d="M142,222.2c0.7-23.9,1.2-43,1.8-62.1c0-1.3-0.3-3,0.3-3.9c1.1-1.6,2.8-3.8,4.4-3.9c1.5-0.1,3.4,2,4.4,3.6
      c0.8,1.3,0.6,3.2,0.6,4.9c1.2,35.3,2.9,70.6,3.3,105.9c0.2,17.9-2.1,35.9-3.4,53.8c-0.2,3-1.3,5.7-5.1,5.5c-3.7-0.3-4.3-3-4.5-6.1
         C141.2,285.7,139.5,251.6,142,222.2z"/>
    <path d="M121.7,218.3c0.6-17,1.2-34,1.9-51c0.1-1.7,0.6-3.6,1.6-5c0.5-0.8,2.6-1.4,3.5-1c1.3,0.6,2.8,2.1,3.1,3.4
       c0.6,3.1,0.7,6.3,0.8,9.4c1.2,30.8,2.9,61.6,3.5,92.4c0.2,13.4-1.7,26.9-2.7,40.3c-0.4,4.8-0.5,9.7-1.4,14.4
         c-0.3,1.8-2.5,3.2-3.9,4.8c-1.5-1.6-4.1-3.2-4.3-4.9c-1.3-14.1-2.7-28.2-3-42.4c-0.5-20.1-0.1-40.3-0.1-60.4
           C121,218.2,121.4,218.2,121.7,218.3z"/>
    <path d="M101.2,236.1c0.7-17.7,1.2-32.5,2-47.3c0.2-3-0.8-7.7,4-7.9c5.1-0.2,4,4.6,4.2,7.5c1.3,20.9,1.8,41.9,3.5,62.8
      c1.8,23.1-2.3,45.8-3.4,68.6c-0.1,1,0,2.2-0.5,2.9c-0.9,1.2-2.3,3-3.3,2.9c-1.4-0.2-3.5-1.7-3.7-2.9c-0.8-4.7-1-9.6-1.4-14.4
         C100.3,283.3,98.3,258.3,101.2,236.1z"/>
    <path d="M95,267.8c-1.6,18.2-3,35.6-4.7,53c-0.2,1.7-2.2,3.2-3.3,4.8c-1.2-1.7-3.4-3.2-3.6-5c-3.1-30.6-5.6-61.3-0.9-92
       c0.5-3.1,0.1-6.4,0.9-9.4c0.5-2.1,2-5.3,3.4-5.4c3.7-0.5,3.6,3.2,3.8,5.7c1.1,11.9,2.1,23.8,3.2,35.8   C94.2,259.7,94.7,264.1,95,267.8z"/>
    <path d="M74.6,268.1c-1.7,17.6-3.3,35.3-5.1,53c-0.1,1.2-1.9,2.3-2.9,3.5c-1-1.3-2.8-2.4-2.9-3.8c-1.4-14.1-3.4-28.1-3.5-42.2
      c-0.2-16.7,1.3-33.5,2.2-50.2c0.3-5,0.6-10,1.4-14.9c0.2-1.4,1.9-2.5,3-3.7c1,1.2,2.7,2.3,2.8,3.6C71.4,231.6,73,249.8,74.6,268.1z"/>
    <path d="M54.3,267.4c-0.9,9-1.9,20.1-3,31.2c-0.7,6.6-1.3,13.3-2.2,19.9c-0.2,1.4-1.8,2.7-2.8,4c-0.8-1.4-2.2-2.8-2.4-4.3
     c-1.6-16.1-3.4-32.1-4.3-48.2c-0.4-7.7,0.7-15.6,1.4-23.4c0.8-10.1,1.8-20.2,2.9-30.3c0.2-1.5,1.5-3,2.3-4.4c1,1.4,2.8,2.8,3,4.3   C50.9,232.5,52.5,248.9,54.3,267.4z"/>
    <path d="M34.3,268.1c-1.9,14.5-3.7,29.1-5.6,43.6c-0.1,1-1.4,1.9-2.1,2.9c-0.7-1-2-1.8-2.1-2.9c-1-7.4-1.4-14.9-2.8-22.3
     c-4.1-21.6,0.5-42.7,2.5-64c0.1-1.6,1.7-3,2.6-4.6c0.7,1.5,1.8,3,2,4.6C30.8,239.6,32.5,253.8,34.3,268.1z"/>
    <path d="M14.2,268.1c-1.5,9.2-2.9,18.2-4.4,27.2c-0.1,0.8-1.4,1.5-2.1,2.2C7,296.7,6,296,5.8,295c-4-18.1-3.7-36.3,0-54.4
     c0.2-0.9,1.3-1.6,2-2.4c0.7,0.8,1.8,1.5,2,2.4C11.4,249.8,12.8,259,14.2,268.1z"/></g>
</svg>